<svg width="47" height="47" viewBox="0 0 47 47" fill="none" xmlns="http://www.w3.org/2000/svg">
    <circle cx="23.909" cy="23.0909" r="22.5136" stroke="white" stroke-width="1.15455"/>
    <path d="M16.0442 17.752C17.4394 17.752 18.5704 16.621 18.5704 15.2259C18.5704 13.8307 17.4394 12.6997 16.0442 12.6997C14.6491 12.6997 13.5181 13.8307 13.5181 15.2259C13.5181 16.621 14.6491 17.752 16.0442 17.752Z" fill="white"/>
    <path d="M20.956 19.6657V33.6807H25.3074V26.75C25.3074 24.9212 25.6515 23.1501 27.919 23.1501C30.1554 23.1501 30.1831 25.241 30.1831 26.8654V33.6819H34.5369V25.9961C34.5369 22.2207 33.7241 19.3193 29.3114 19.3193C27.1928 19.3193 25.7727 20.482 25.192 21.5822H25.1331V19.6657H20.956ZM13.8647 19.6657H18.2232V33.6807H13.8647V19.6657Z" fill="white"/>
</svg>
