<svg width="47" height="47" viewBox="0 0 47 47" fill="none" xmlns="http://www.w3.org/2000/svg">
    <circle cx="23.6363" cy="23.0909" r="22.5136" stroke="white" stroke-width="1.15455"/>
    <path d="M34.0272 15.9117C33.3054 16.2498 32.5199 16.4932 31.7109 16.588C32.5509 16.046 33.1799 15.1897 33.4799 14.1799C32.6917 14.6891 31.8282 15.0462 30.9278 15.2353C30.5514 14.7984 30.0962 14.4502 29.5906 14.2127C29.0849 13.9751 28.5397 13.8532 27.9887 13.8545C25.7597 13.8545 23.967 15.8169 23.967 18.225C23.967 18.5632 24.0048 18.9014 24.0661 19.2267C20.7285 19.0371 17.7517 17.3053 15.7727 14.6538C15.4121 15.3227 15.2231 16.0844 15.2255 16.8596C15.2255 18.3762 15.9355 19.7135 17.0181 20.5C16.3801 20.4727 15.757 20.2822 15.1995 19.944V19.9978C15.1995 22.1216 16.5818 23.8816 18.424 24.2864C18.0781 24.384 17.7222 24.4339 17.3649 24.435C17.103 24.435 16.8554 24.4068 16.6053 24.3684C17.1148 26.1002 18.5985 27.3581 20.3652 27.3991C18.983 28.5749 17.2516 29.2667 15.3717 29.2667C15.0344 29.2667 14.7231 29.2538 14.3999 29.2129C16.1831 30.4554 18.2989 31.1727 20.5775 31.1727C27.9746 31.1727 32.0222 24.517 32.0222 18.74C32.0222 18.5504 32.0222 18.3608 32.0104 18.1712C32.7935 17.5487 33.4799 16.7776 34.0272 15.9117Z" fill="white"/>
</svg>
